<svg data-v-423bf9ae="" xmlns="http://www.w3.org/2000/svg" viewBox="0 0 384.9344829814939 60" class="font"><!----><!----><!----><g data-v-423bf9ae="" id="86affd62-94fc-4183-9f2f-a1cd3fb456b1" fill="white" transform="matrix(4.568955287614171,0,0,4.568955287614171,-3.198267717890957,-14.976553768001722)"><path d="M0.70 7.81L0.70 6.26L1.34 6.26L1.34 6.26Q1.34 5.89 1.34 5.54L1.34 5.54L1.34 5.54Q1.33 5.18 1.36 4.87L1.36 4.87L1.36 4.87Q1.40 4.55 1.48 4.28L1.48 4.28L1.48 4.28Q1.55 4.02 1.72 3.81L1.72 3.81L1.72 3.81Q1.92 3.57 2.25 3.44L2.25 3.44L2.25 3.44Q2.58 3.30 3.11 3.28L3.11 3.28L3.11 3.28Q3.68 3.26 4.16 3.43L4.16 3.43L4.16 3.43Q4.63 3.60 4.89 3.90L4.89 3.90L4.89 3.90Q5.15 4.20 5.15 4.59L5.15 4.59L5.15 4.59Q5.14 4.98 4.75 5.42L4.75 5.42L4.75 5.42Q4.65 5.14 4.39 4.97L4.39 4.97L4.39 4.97Q4.13 4.80 3.86 4.79L3.86 4.79L3.86 4.79Q3.58 4.77 3.37 4.92L3.37 4.92L3.37 4.92Q3.16 5.07 3.16 5.42L3.16 5.42L3.16 6.26L4.96 6.26L4.96 6.26Q4.96 6.96 4.56 7.39L4.56 7.39L4.56 7.39Q4.17 7.81 3.58 7.81L3.58 7.81L3.16 7.81L3.16 13.52L1.34 13.52L1.34 7.81L0.70 7.81ZM6.27 13.52L6.27 7.74L6.27 7.74Q6.30 7.32 6.45 7.04L6.45 7.04L6.45 7.04Q6.59 6.76 6.83 6.59L6.83 6.59L6.83 6.59Q7.07 6.43 7.38 6.35L7.38 6.35L7.38 6.35Q7.70 6.27 8.08 6.27L8.08 6.27L8.08 13.52L6.27 13.52ZM7.18 3.29L7.18 3.29L7.18 3.29Q7.66 3.29 7.99 3.64L7.99 3.64L7.99 3.64Q8.34 3.98 8.34 4.47L8.34 4.47L8.34 4.47Q8.34 4.96 8.01 5.31L8.01 5.31L8.01 5.31Q7.81 5.50 7.55 5.58L7.55 5.58L7.55 5.58Q7.29 5.66 7.04 5.73L7.04 5.73L7.04 5.73Q6.78 5.81 6.56 5.92L6.56 5.92L6.56 5.92Q6.34 6.02 6.26 6.26L6.26 6.26L6.26 6.26Q6.19 6.03 6.11 5.68L6.11 5.68L6.11 5.68Q6.03 5.33 6.01 4.96L6.01 4.96L6.01 4.96Q5.99 4.58 6.05 4.22L6.05 4.22L6.05 4.22Q6.12 3.86 6.36 3.63L6.36 3.63L6.36 3.63Q6.69 3.29 7.18 3.29ZM11.55 6.27L11.55 7.11L11.55 7.11Q11.66 6.86 11.89 6.68L11.89 6.68L11.89 6.68Q12.12 6.50 12.40 6.37L12.40 6.37L12.40 6.37Q12.68 6.24 12.98 6.17L12.98 6.17L12.98 6.17Q13.27 6.10 13.52 6.09L13.52 6.09L13.52 6.09Q14.06 6.06 14.57 6.24L14.57 6.24L14.57 6.24Q15.09 6.41 15.53 6.85L15.53 6.85L15.53 6.85Q16.16 7.50 16.16 8.74L16.16 8.74L16.16 13.52L14.36 13.52L14.36 13.52Q14.36 13.29 14.37 12.88L14.37 12.88L14.37 12.88Q14.38 12.47 14.38 11.99L14.38 11.99L14.38 11.99Q14.38 11.51 14.38 10.99L14.38 10.99L14.38 10.99Q14.38 10.47 14.36 10.01L14.36 10.01L14.36 10.01Q14.35 9.55 14.32 9.18L14.32 9.18L14.32 9.18Q14.29 8.82 14.25 8.65L14.25 8.65L14.25 8.65Q14.14 8.20 13.82 7.98L13.82 7.98L13.82 7.98Q13.51 7.76 13.15 7.76L13.15 7.76L13.15 7.76Q12.67 7.76 12.40 8.02L12.40 8.02L12.40 8.02Q12.14 8.27 12.14 8.69L12.14 8.69L12.14 8.69Q11.97 8.64 11.80 8.46L11.80 8.46L11.80 8.46Q11.63 8.29 11.55 8.09L11.55 8.09L11.55 8.47L11.55 13.52L9.74 13.52L9.74 6.27L11.55 6.27ZM22.81 13.51L22.81 12.74L22.81 12.74Q22.29 13.24 21.68 13.48L21.68 13.48L21.68 13.48Q21.07 13.71 20.45 13.69L20.45 13.69L20.45 13.69Q19.84 13.66 19.26 13.41L19.26 13.41L19.26 13.41Q18.69 13.15 18.25 12.66L18.25 12.66L18.25 12.66Q17.81 12.18 17.54 11.51L17.54 11.51L17.54 11.51Q17.28 10.84 17.28 9.98L17.28 9.98L17.28 9.98Q17.28 9.16 17.56 8.47L17.56 8.47L17.56 8.47Q17.85 7.78 18.33 7.29L18.33 7.29L18.33 7.29Q18.82 6.79 19.43 6.52L19.43 6.52L19.43 6.52Q20.05 6.26 20.72 6.29L20.72 6.29L20.72 6.29Q21.42 6.31 21.82 6.58L21.82 6.58L21.82 6.58Q22.22 6.85 22.39 7.20L22.39 7.20L22.39 7.20Q22.57 7.55 22.56 7.90L22.56 7.90L22.56 7.90Q22.55 8.26 22.43 8.48L22.43 8.48L22.43 8.48Q22.19 8.15 21.76 8.03L21.76 8.03L21.76 8.03Q21.34 7.91 20.96 7.91L20.96 7.91L20.96 7.91Q20.33 7.91 19.90 8.22L19.90 8.22L19.90 8.22Q19.47 8.53 19.26 8.99L19.26 8.99L19.26 8.99Q19.04 9.45 19.04 9.99L19.04 9.99L19.04 9.99Q19.04 10.53 19.25 10.99L19.25 10.99L19.25 10.99Q19.46 11.45 19.88 11.76L19.88 11.76L19.88 11.76Q20.30 12.07 20.94 12.07L20.94 12.07L20.94 12.07Q21.49 12.07 21.85 11.82L21.85 11.82L21.85 11.82Q22.20 11.58 22.41 11.19L22.41 11.19L22.41 11.19Q22.62 10.79 22.72 10.31L22.72 10.31L22.72 10.31Q22.81 9.83 22.81 9.35L22.81 9.35L22.81 3.74L22.81 3.74Q23.63 3.77 24.10 4.19L24.10 4.19L24.10 4.19Q24.57 4.61 24.57 5.17L24.57 5.17L24.57 13.51L22.81 13.51ZM31.29 6.29L31.29 7.11L31.29 7.11Q31.40 6.86 31.63 6.68L31.63 6.68L31.63 6.68Q31.85 6.50 32.13 6.38L32.13 6.38L32.13 6.38Q32.41 6.26 32.70 6.19L32.70 6.19L32.70 6.19Q33.00 6.12 33.25 6.10L33.25 6.10L33.25 6.10Q33.78 6.06 34.31 6.24L34.31 6.24L34.31 6.24Q34.83 6.41 35.25 6.85L35.25 6.85L35.25 6.85Q35.38 6.99 35.48 7.13L35.48 7.13L35.48 7.13Q35.59 7.28 35.66 7.46L35.66 7.46L35.66 7.46Q35.70 7.15 35.91 6.91L35.91 6.91L35.91 6.91Q36.12 6.66 36.42 6.49L36.42 6.49L36.42 6.49Q36.72 6.31 37.07 6.22L37.07 6.22L37.07 6.22Q37.42 6.12 37.76 6.10L37.76 6.10L37.76 6.10Q38.30 6.06 38.83 6.24L38.83 6.24L38.83 6.24Q39.35 6.41 39.80 6.85L39.80 6.85L39.80 6.85Q40.43 7.50 40.43 8.74L40.43 8.74L40.43 13.52L38.61 13.52L38.61 13.52Q38.61 13.29 38.61 12.88L38.61 12.88L38.61 12.88Q38.61 12.47 38.61 11.99L38.61 11.99L38.61 11.99Q38.60 11.51 38.60 10.99L38.60 10.99L38.60 10.99Q38.60 10.47 38.58 10.01L38.58 10.01L38.58 10.01Q38.57 9.55 38.55 9.18L38.55 9.18L38.55 9.18Q38.53 8.82 38.50 8.65L38.50 8.65L38.50 8.65Q38.35 7.74 37.48 7.70L37.48 7.70L37.48 7.70Q36.99 7.69 36.66 7.98L36.66 7.98L36.66 7.98Q36.33 8.27 36.34 8.69L36.34 8.69L36.34 8.69Q36.22 8.65 36.09 8.55L36.09 8.55L36.09 8.55Q35.97 8.44 35.87 8.30L35.87 8.30L35.87 8.30Q35.88 8.41 35.88 8.52L35.88 8.52L35.88 8.52Q35.88 8.62 35.88 8.74L35.88 8.74L35.88 13.52L34.09 13.52L34.09 13.52Q34.09 13.29 34.10 12.88L34.10 12.88L34.10 12.88Q34.10 12.47 34.10 11.99L34.10 11.99L34.10 11.99Q34.10 11.51 34.10 10.99L34.10 10.99L34.10 10.99Q34.10 10.47 34.09 10.01L34.09 10.01L34.09 10.01Q34.08 9.55 34.05 9.18L34.05 9.18L34.05 9.18Q34.02 8.82 33.98 8.65L33.98 8.65L33.98 8.65Q33.87 8.20 33.56 7.98L33.56 7.98L33.56 7.98Q33.25 7.76 32.89 7.76L32.89 7.76L32.89 7.76Q32.40 7.76 32.13 8.02L32.13 8.02L32.13 8.02Q31.86 8.27 31.86 8.69L31.86 8.69L31.86 8.69Q31.70 8.64 31.53 8.46L31.53 8.46L31.53 8.46Q31.36 8.29 31.29 8.09L31.29 8.09L31.29 13.52L29.47 13.52L29.47 6.29L31.29 6.29ZM46.77 10.72L46.77 10.72L46.77 10.72Q46.02 10.92 45.40 10.86L45.40 10.86L45.40 10.86Q44.77 10.81 44.37 10.56L44.37 10.56L44.37 10.56Q43.97 10.32 43.84 9.91L43.84 9.91L43.84 9.91Q43.71 9.49 43.92 8.97L43.92 8.97L43.92 8.97Q44.35 9.34 44.93 9.37L44.93 9.37L44.93 9.37Q45.50 9.41 46.03 9.35L46.03 9.35L46.03 9.35Q46.48 9.31 46.71 9.16L46.71 9.16L46.71 9.16Q46.94 9.00 47.00 8.80L47.00 8.80L47.00 8.80Q47.05 8.60 46.96 8.37L46.96 8.37L46.96 8.37Q46.86 8.15 46.64 7.97L46.64 7.97L46.64 7.97Q46.42 7.78 46.11 7.67L46.11 7.67L46.11 7.67Q45.79 7.56 45.42 7.57L45.42 7.57L45.42 7.57Q45.01 7.60 44.65 7.77L44.65 7.77L44.65 7.77Q44.28 7.94 44.00 8.23L44.00 8.23L44.00 8.23Q43.72 8.53 43.55 8.92L43.55 8.92L43.55 8.92Q43.39 9.31 43.37 9.79L43.37 9.79L43.37 9.79Q43.36 10.18 43.46 10.56L43.46 10.56L43.46 10.56Q43.57 10.93 43.78 11.25L43.78 11.25L43.78 11.25Q43.99 11.56 44.28 11.78L44.28 11.78L44.28 11.78Q44.58 12.00 44.95 12.05L44.95 12.05L44.95 12.05Q45.49 12.15 46.05 11.98L46.05 11.98L46.05 11.98Q46.61 11.82 47.04 11.37L47.04 11.37L48.51 12.08L48.51 12.08Q47.94 12.94 47.15 13.31L47.15 13.31L47.15 13.31Q46.37 13.68 45.36 13.68L45.36 13.68L45.36 13.68Q44.42 13.68 43.72 13.35L43.72 13.35L43.72 13.35Q43.01 13.02 42.54 12.47L42.54 12.47L42.54 12.47Q42.07 11.93 41.84 11.24L41.84 11.24L41.84 11.24Q41.61 10.54 41.62 9.82L41.62 9.82L41.62 9.82Q41.64 9.10 41.90 8.41L41.90 8.41L41.90 8.41Q42.17 7.71 42.67 7.18L42.67 7.18L42.67 7.18Q43.23 6.58 43.98 6.33L43.98 6.33L43.98 6.33Q44.73 6.08 45.51 6.08L45.51 6.08L45.51 6.08Q46.38 6.08 47.01 6.37L47.01 6.37L47.01 6.37Q47.64 6.66 48.03 7.12L48.03 7.12L48.03 7.12Q48.43 7.57 48.55 8.13L48.55 8.13L48.55 8.13Q48.68 8.68 48.53 9.20L48.53 9.20L48.53 9.20Q48.38 9.72 47.95 10.13L47.95 10.13L47.95 10.13Q47.52 10.54 46.77 10.72ZM58.72 13.52L58.72 12.73L58.72 12.73Q58.18 13.24 57.56 13.48L57.56 13.48L57.56 13.48Q56.94 13.72 56.31 13.70L56.31 13.70L56.31 13.70Q55.68 13.68 55.08 13.41L55.08 13.41L55.08 13.41Q54.49 13.15 54.03 12.65L54.03 12.65L54.03 12.65Q53.58 12.15 53.31 11.46L53.31 11.46L53.31 11.46Q53.03 10.77 53.03 9.88L53.03 9.88L53.03 9.88Q53.03 9.04 53.33 8.33L53.33 8.33L53.33 8.33Q53.62 7.62 54.12 7.11L54.12 7.11L54.12 7.11Q54.61 6.61 55.25 6.34L55.25 6.34L55.25 6.34Q55.89 6.06 56.57 6.09L56.57 6.09L56.57 6.09Q57.25 6.12 57.65 6.39L57.65 6.39L57.65 6.39Q58.06 6.66 58.25 7.03L58.25 7.03L58.25 7.03Q58.44 7.39 58.44 7.76L58.44 7.76L58.44 7.76Q58.45 8.13 58.32 8.36L58.32 8.36L58.32 8.36Q58.09 8.01 57.65 7.89L57.65 7.89L57.65 7.89Q57.22 7.77 56.81 7.77L56.81 7.77L56.81 7.77Q56.17 7.77 55.73 8.09L55.73 8.09L55.73 8.09Q55.30 8.40 55.08 8.88L55.08 8.88L55.08 8.88Q54.85 9.35 54.85 9.91L54.85 9.91L54.85 9.91Q54.84 10.46 55.06 10.93L55.06 10.93L55.06 10.93Q55.27 11.41 55.71 11.73L55.71 11.73L55.71 11.73Q56.15 12.04 56.81 12.04L56.81 12.04L56.81 12.04Q57.37 12.04 57.74 11.79L57.74 11.79L57.74 11.79Q58.10 11.54 58.32 11.14L58.32 11.14L58.32 11.14Q58.53 10.74 58.63 10.24L58.63 10.24L58.63 10.24Q58.72 9.74 58.72 9.25L58.72 9.25L58.72 7.04L58.72 6.27L60.54 6.27L60.54 13.52L58.72 13.52ZM67.56 6.29L67.56 13.80L67.56 13.80Q67.56 14.83 67.37 15.34L67.37 15.34L67.37 15.34Q67.14 15.90 66.69 16.16L66.69 16.16L66.69 16.16Q66.23 16.41 65.65 16.41L65.65 16.41L65.65 16.41Q65.18 16.41 64.80 16.23L64.80 16.23L64.80 16.23Q64.41 16.06 64.18 15.79L64.18 15.79L64.18 15.79Q63.95 15.51 63.91 15.17L63.91 15.17L63.91 15.17Q63.87 14.83 64.11 14.49L64.11 14.49L64.11 14.49Q64.23 14.62 64.42 14.73L64.42 14.73L64.42 14.73Q64.61 14.84 64.82 14.89L64.82 14.89L64.82 14.89Q65.03 14.94 65.23 14.90L65.23 14.90L65.23 14.90Q65.42 14.87 65.56 14.70L65.56 14.70L65.56 14.70Q65.74 14.50 65.74 13.93L65.74 13.93L65.74 13.93Q65.74 12.39 65.74 10.86L65.74 10.86L65.74 10.86Q65.73 9.32 65.73 7.77L65.73 7.77L65.73 7.77Q65.76 7.34 65.91 7.06L65.91 7.06L65.91 7.06Q66.05 6.78 66.30 6.61L66.30 6.61L66.30 6.61Q66.54 6.44 66.86 6.37L66.86 6.37L66.86 6.37Q67.19 6.30 67.56 6.29L67.56 6.29ZM66.65 3.30L66.65 3.30L66.65 3.30Q67.13 3.30 67.48 3.65L67.48 3.65L67.48 3.65Q67.82 3.99 67.82 4.49L67.82 4.49L67.82 4.49Q67.82 4.98 67.48 5.32L67.48 5.32L67.48 5.32Q67.28 5.52 67.03 5.60L67.03 5.60L67.03 5.60Q66.77 5.68 66.51 5.75L66.51 5.75L66.51 5.75Q66.25 5.82 66.03 5.94L66.03 5.94L66.03 5.94Q65.81 6.05 65.73 6.29L65.73 6.29L65.73 6.29Q65.66 6.06 65.58 5.71L65.58 5.71L65.58 5.71Q65.51 5.36 65.49 4.98L65.49 4.98L65.49 4.98Q65.46 4.59 65.53 4.24L65.53 4.24L65.53 4.24Q65.59 3.88 65.83 3.64L65.83 3.64L65.83 3.64Q66.16 3.30 66.65 3.30ZM72.66 6.10L72.66 6.10L72.66 6.10Q73.77 6.10 74.63 6.64L74.63 6.64L74.63 6.64Q75.49 7.17 75.98 7.99L75.98 7.99L75.98 7.99Q76.47 8.82 76.50 9.83L76.50 9.83L76.50 9.83Q76.54 10.84 75.99 11.80L75.99 11.80L75.99 11.80Q75.53 12.60 74.79 13.08L74.79 13.08L74.79 13.08Q74.05 13.55 73.21 13.67L73.21 13.67L73.21 13.67Q72.37 13.79 71.52 13.53L71.52 13.53L71.52 13.53Q70.67 13.27 70.00 12.60L70.00 12.60L70.00 12.60Q69.24 11.83 68.99 10.82L68.99 10.82L68.99 10.82Q68.74 9.81 69.03 8.81L69.03 8.81L69.03 8.81Q69.16 8.40 69.45 8.13L69.45 8.13L69.45 8.13Q69.73 7.87 70.10 7.74L70.10 7.74L70.10 7.74Q70.46 7.62 70.85 7.63L70.85 7.63L70.85 7.63Q71.25 7.64 71.58 7.79L71.58 7.79L71.58 7.79Q71.92 7.94 72.15 8.21L72.15 8.21L72.15 8.21Q72.38 8.48 72.42 8.88L72.42 8.88L72.42 8.88Q72.21 8.72 71.92 8.71L71.92 8.71L71.92 8.71Q71.62 8.71 71.35 8.84L71.35 8.84L71.35 8.84Q71.08 8.97 70.89 9.25L70.89 9.25L70.89 9.25Q70.70 9.52 70.70 9.93L70.70 9.93L70.70 9.93Q70.70 10.63 70.99 11.09L70.99 11.09L70.99 11.09Q71.29 11.55 71.73 11.78L71.73 11.78L71.73 11.78Q72.17 12.01 72.68 12.01L72.68 12.01L72.68 12.01Q73.19 12.01 73.63 11.77L73.63 11.77L73.63 11.77Q74.07 11.54 74.37 11.07L74.37 11.07L74.37 11.07Q74.66 10.60 74.66 9.90L74.66 9.90L74.66 9.90Q74.66 9.35 74.47 8.93L74.47 8.93L74.47 8.93Q74.27 8.51 73.94 8.24L73.94 8.24L73.94 8.24Q73.61 7.97 73.18 7.86L73.18 7.86L73.18 7.86Q72.74 7.76 72.25 7.85L72.25 7.85L72.25 7.85Q72.04 7.60 71.74 7.46L71.74 7.46L71.74 7.46Q71.44 7.31 71.09 7.26L71.09 7.26L71.09 7.26Q70.74 7.21 70.39 7.27L70.39 7.27L70.39 7.27Q70.04 7.34 69.73 7.52L69.73 7.52L69.73 7.52Q70.29 6.85 71.04 6.48L71.04 6.48L71.04 6.48Q71.78 6.10 72.66 6.10ZM79.39 12.75L79.39 13.52L77.63 13.52L77.63 5.17L77.63 5.17Q77.63 4.59 78.10 4.17L78.10 4.17L78.10 4.17Q78.57 3.75 79.39 3.72L79.39 3.72L79.39 9.37L79.39 9.37Q79.39 9.84 79.49 10.33L79.49 10.33L79.49 10.33Q79.58 10.81 79.79 11.20L79.79 11.20L79.79 11.20Q80.00 11.59 80.36 11.84L80.36 11.84L80.36 11.84Q80.72 12.08 81.27 12.08L81.27 12.08L81.27 12.08Q81.91 12.08 82.34 11.77L82.34 11.77L82.34 11.77Q82.77 11.47 82.98 11.00L82.98 11.00L82.98 11.00Q83.19 10.54 83.18 10.00L83.18 10.00L83.18 10.00Q83.17 9.45 82.96 8.99L82.96 8.99L82.96 8.99Q82.74 8.53 82.31 8.22L82.31 8.22L82.31 8.22Q81.89 7.91 81.26 7.91L81.26 7.91L81.26 7.91Q80.88 7.91 80.45 8.03L80.45 8.03L80.45 8.03Q80.02 8.15 79.79 8.48L79.79 8.48L79.79 8.48Q79.66 8.26 79.65 7.90L79.65 7.90L79.65 7.90Q79.65 7.53 79.83 7.18L79.83 7.18L79.83 7.18Q80.01 6.83 80.40 6.57L80.40 6.57L80.40 6.57Q80.79 6.30 81.49 6.27L81.49 6.27L81.49 6.27Q82.17 6.26 82.79 6.52L82.79 6.52L82.79 6.52Q83.41 6.79 83.90 7.28L83.90 7.28L83.90 7.28Q84.38 7.77 84.67 8.46L84.67 8.46L84.67 8.46Q84.95 9.16 84.95 9.98L84.95 9.98L84.95 9.98Q84.95 10.84 84.69 11.52L84.69 11.52L84.69 11.52Q84.42 12.19 83.97 12.67L83.97 12.67L83.97 12.67Q83.52 13.15 82.95 13.41L82.95 13.41L82.95 13.41Q82.38 13.68 81.76 13.70L81.76 13.70L81.76 13.70Q81.14 13.72 80.53 13.50L80.53 13.50L80.53 13.50Q79.91 13.27 79.39 12.75L79.39 12.75Z"></path></g><!----><!----></svg>